<?xml version="1.0" standalone="no"?><!DOCTYPE svg PUBLIC "-//W3C//DTD SVG 1.1//EN" "http://www.w3.org/Graphics/SVG/1.1/DTD/svg11.dtd"><svg t="1544767891301" class="icon" style="" viewBox="0 0 1024 1024" version="1.1" xmlns="http://www.w3.org/2000/svg" p-id="11437" xmlns:xlink="http://www.w3.org/1999/xlink" width="128" height="128"><defs><style type="text/css"></style></defs><path d="M528.544303 46.535873c-247.186775 0-447.601294 200.38996-447.601294 447.601294 0 247.211335 200.415542 447.601294 447.601294 447.601294 247.194962 0 447.601294-200.38996 447.601294-447.601294C976.146621 246.924809 775.740288 46.535873 528.544303 46.535873M789.830191 372.900965 483.425709 670.0302c-5.210675 5.053086-11.95938 7.569396-18.690688 7.569396-6.880711 0-13.752212-2.622734-18.99768-7.867178L326.355371 550.349423c-10.500145-10.490935-10.500145-29.53364 0-40.024575 10.489912-10.490935 27.476795-12.537548 37.96773-2.046612l100.691283 100.676957 287.437501-278.719956c10.629081-10.29753 27.607778-8.024767 37.97387 2.641153C800.734542 343.523891 800.489972 362.566596 789.830191 372.900965" p-id="11438"></path></svg>
