<svg class="icon" viewBox="0 0 1024 1024" xmlns="http://www.w3.org/2000/svg" width="128" height="128"><defs><style/></defs><path d="M945.93 893.864L556.382 510.921l381.17-391.297c12.443-12.757 12.218-33.217-.493-45.705-12.689-12.488-33.062-12.264-45.48.494l-381.18 391.306-389.555-382.95c-12.691-12.488-33.062-12.264-45.482.493-12.42 12.735-12.196 33.218.494 45.684L465.41 511.904 84.232 903.208c-12.443 12.756-12.217 33.216.494 45.706a31.997 31.997 0 0 0 22.841 9.209 31.986 31.986 0 0 0 22.641-9.703l381.183-391.31 389.552 382.955a31.939 31.939 0 0 0 22.84 9.23c8.222-.088 16.42-3.347 22.64-9.724 12.422-12.76 12.219-33.22-.493-45.707z"/></svg>