<?xml version="1.0" standalone="no"?><!DOCTYPE svg PUBLIC "-//W3C//DTD SVG 1.1//EN" "http://www.w3.org/Graphics/SVG/1.1/DTD/svg11.dtd"><svg t="1544595052196" class="icon" style="" viewBox="0 0 1024 1024" version="1.1" xmlns="http://www.w3.org/2000/svg" p-id="2716" xmlns:xlink="http://www.w3.org/1999/xlink" width="128" height="128"><defs><style type="text/css"></style></defs><path d="M834.8 778.5h-28c0.2 0.6 0.7 1 0.7 1.7v84.7c0 4.2-3.4 7.5-7.5 7.5H232.6c-4.1 0-7.5-3.4-7.5-7.5v-84.7c0-0.6 0.5-1.1 0.7-1.7h-28c0 0.6-0.3 1.1-0.3 1.7v84.7c0 19.4 15.8 35.2 35.2 35.2H800c19.4 0 35.2-15.8 35.2-35.2v-84.7c-0.1-0.6-0.4-1.1-0.4-1.7z"  p-id="2717"></path><path d="M516.2 126.5c-49.1 0-95.9 18.5-131.7 51.9-38.9 36.5-61.3 87.9-61.3 141.1 0 52.6 20.8 101.8 58.6 138.5 15.3 14.8 24 35.2 24 55.9v19.4c0 29.9-17.5 57.3-44.5 69.9l-122.2 56.9c-37.6 17.5-64.1 54.1-69.1 95.7-1 7.9 1.5 15.8 6.8 21.7 5.3 5.9 12.8 9.3 20.7 9.3h637.6c7.9 0 15.5-3.4 20.7-9.3 5.3-5.9 7.7-13.8 6.8-21.7-5-41.4-31.5-78.1-69.2-95.6L743.5 637l-2.7 3.1-8.6 16.6-0.8 5.1 50.4 23.5c29.5 13.7 49.5 42 53.4 73.8H197.5c3.9-31.9 23.7-60.2 53.3-73.9L373 628.3c36.8-17.1 60.5-54.4 60.5-95v-19.4c0-28.2-11.8-55.8-32.4-75.8-32.4-31.4-50.2-73.5-50.2-118.6 0-45.6 19.2-89.7 52.5-120.9 31-28.9 70.7-44.5 112.8-44.5 3.9 0 7.8 0.1 11.8 0.4 80.3 5.6 146 70.1 152.9 150.2 4.4 50.6-14.1 99.6-50.7 134.4-19.9 19-31.3 46.1-31.3 74.6v19.4c0 23.2 10.5 48.5 24.1 66.4 0.4 0.5 0.7 0.7 1.1 0.7 1.3 0 2.6-2.5 4-2.5 0.4 0 0.7 0.2 1.1 0.6l14.7-16.9c-10.6-13.4-17.2-30.6-17.2-48.2v-19.4c0-20.9 8.3-40.8 22.7-54.6 42.8-40.6 64.4-97.8 59.3-156.9-8-93.5-84.8-169-178.6-175.5-4.8-0.2-9.4-0.3-13.9-0.3z"  p-id="2718"></path><path d="M634.1 577.6c-7.6 0-13.8 6.2-13.8 13.8s6.2 13.8 13.8 13.8 13.8-6.2 13.8-13.8-6.2-13.8-13.8-13.8zM738.1 635.9c-7.6 0-13.8 6.2-13.8 13.8 0 7.6 6.2 13.8 13.8 13.8s13.8-6.2 13.8-13.8c0-7.6-6.1-13.8-13.8-13.8z" p-id="2719"></path></svg>
