<svg width="216" height="265" xmlns="http://www.w3.org/2000/svg"><g fill="none" fill-rule="evenodd"><path d="M157.782 232.471c0-2.578-.78-4.408-2.34-5.49-1.557-1.084-3.896-1.628-7.013-1.628-.332 0-.756.01-1.278.03-.52.02-1.05.042-1.59.06-.542.02-1.049.044-1.528.065-.478.019-.864.05-1.154.088v14.611c.247 0 .635.01 1.154.029.52.021 1.061.04 1.62.061.562.02 1.101.042 1.62.062.521.02.906.029 1.156.029 3.367 0 5.766-.614 7.201-1.839 1.435-1.227 2.152-3.07 2.152-5.525v-.553zm8.607.553c0 2.7-.49 4.973-1.467 6.812-.977 1.843-2.286 3.325-3.93 4.45-1.64 1.127-3.542 1.924-5.705 2.394-2.163.47-4.446.706-6.858.706-.832 0-1.788-.031-2.867-.092-1.083-.062-1.976-.113-2.683-.152v16.018c0 .326-.112.615-.345.86a1.105 1.105 0 0 1-.84.367h-6.235c-.333 0-.621-.123-.875-.366a1.178 1.178 0 0 1-.373-.86v-42.227c0-.616.177-1.054.53-1.319.356-.267.841-.44 1.466-.52 1.622-.246 3.49-.443 5.614-.585a98.826 98.826 0 0 1 6.608-.215c2.412 0 4.695.223 6.858.675 2.163.45 4.064 1.227 5.706 2.33 1.643 1.107 2.952 2.57 3.93 4.39.977 1.824 1.466 4.08 1.466 6.781v.553zm48.713 30.443c0 .326-.103.565-.31.707-.21.14-.459.213-.75.213h-6.297a.87.87 0 0 1-.718-.366 1.373 1.373 0 0 1-.28-.86v-28.54c0-.411-.061-.616-.19-.616-.039 0-.144.123-.31.37l-5.985 11.72c-.207.33-.49.585-.84.77-.354.183-.74.277-1.155.277h-6.299c-.417 0-.8-.094-1.153-.276a2.174 2.174 0 0 1-.843-.77l-6.047-11.721c-.167-.247-.27-.37-.313-.37-.123 0-.187.205-.187.617v28.538c0 .326-.093.615-.279.86a.869.869 0 0 1-.72.367h-6.296c-.29 0-.543-.073-.75-.213-.204-.142-.308-.381-.308-.707V221.24c0-.696.238-1.28.716-1.75.478-.471 1.069-.707 1.777-.707h5.114c.497 0 .954.134 1.371.402.417.265.728.62.935 1.072l9.415 18.779c.167.287.292.505.374.649.084.14.189.213.312.213.124 0 .23-.073.311-.213.084-.144.207-.362.376-.65l9.412-18.778c.21-.452.523-.807.94-1.072.415-.268.87-.402 1.37-.402h5.114c.704 0 1.3.236 1.776.707.478.47.717 1.054.717 1.75v42.226zm-98.05-12.766c0-.86-.127-1.677-.376-2.455a4.977 4.977 0 0 0-1.279-2.057c-.602-.59-1.392-1.075-2.37-1.443-.976-.368-2.193-.55-3.649-.55h-7.916v13.503c.75 0 1.62.02 2.619.06.997.042 1.828.06 2.491.06 1.998 0 3.66-.12 4.99-.367s2.402-.634 3.208-1.165c.816-.535 1.396-1.198 1.75-1.996.355-.799.532-1.728.532-2.794v-.796zm-.251-19.456c0-2.126-.8-3.642-2.403-4.543-1.6-.9-4.395-1.35-8.385-1.35-.746 0-1.529.012-2.339.031-.81.02-1.55.052-2.212.092v12.46h7.916c1.456 0 2.663-.154 3.618-.46.956-.308 1.714-.727 2.276-1.258a4.374 4.374 0 0 0 1.184-1.873c.23-.715.345-1.464.345-2.242v-.857zm8.728 20.378c0 2.454-.444 4.52-1.338 6.196-.894 1.678-2.165 3.04-3.805 4.084-1.642 1.042-3.63 1.8-5.955 2.27-2.329.47-4.945.705-7.859.705-2.534 0-4.727-.06-6.577-.184-1.85-.123-3.253-.286-4.21-.491-1.04-.205-1.794-.521-2.273-.952-.478-.428-.718-1.218-.718-2.362v-38.666c0-1.103.218-1.894.651-2.362.441-.472 1.156-.79 2.155-.95.832-.127 2.162-.26 3.99-.401 1.83-.142 3.97-.215 6.423-.215 2.827 0 5.415.215 7.764.646 2.35.428 4.374 1.133 6.08 2.114 1.703.982 3.022 2.262 3.958 3.838.935 1.575 1.404 3.528 1.404 5.86v1.228c0 2.047-.479 3.897-1.435 5.553-.956 1.658-2.39 2.897-4.302 3.714 1.913.817 3.397 1.995 4.458 3.53 1.06 1.533 1.589 3.468 1.589 5.8v1.045zm-52.994 0c0 2.29-.407 4.265-1.217 5.923-.81 1.656-1.91 3.025-3.303 4.11-1.394 1.084-3.044 1.893-4.96 2.424-1.912.531-3.968.798-6.17.798-2.328 0-4.46-.146-6.395-.43a57.49 57.49 0 0 1-5.58-1.104 2.185 2.185 0 0 1-.843-.399c-.224-.184-.34-.442-.34-.768v-3.803c0-.328.104-.596.313-.8.205-.204.477-.308.81-.308h.124c2.493.25 4.729.452 6.703.614 1.976.166 3.712.247 5.207.247 2.534 0 4.333-.54 5.394-1.626 1.06-1.084 1.588-2.712 1.588-4.878v-1.29c0-.818-.072-1.598-.215-2.332a4.729 4.729 0 0 0-.874-1.967c-.436-.57-1.03-1.031-1.78-1.38-.747-.347-1.704-.521-2.866-.521H47.097c-.794 0-1.19-.39-1.19-1.164v-3.87c0-.777.396-1.163 1.19-1.163H58.13c1.162 0 2.119-.163 2.866-.494.75-.326 1.344-.767 1.78-1.317.436-.553.726-1.19.874-1.905.143-.715.215-1.482.215-2.299v-.981c0-.78-.094-1.53-.279-2.243a4.12 4.12 0 0 0-1.061-1.869c-.518-.534-1.237-.965-2.15-1.29-.915-.33-2.08-.494-3.492-.494-1.122 0-2.11.023-2.962.063-.852.039-1.715.092-2.59.152-.87.063-1.807.155-2.802.28-.999.12-2.185.243-3.556.367h-.124c-.333 0-.605-.105-.81-.31-.209-.203-.312-.468-.312-.794v-3.806c0-.328.115-.585.34-.769.23-.182.513-.314.842-.398 1.79-.45 3.648-.819 5.58-1.106 1.935-.283 4.067-.428 6.394-.428 2.245 0 4.323.223 6.236.675 1.912.45 3.565 1.177 4.956 2.176 1.392 1.004 2.484 2.305 3.275 3.898.79 1.597 1.184 3.56 1.184 5.896v.981c0 2.168-.467 3.999-1.402 5.493-.935 1.492-2.257 2.69-3.96 3.589 1.744.94 3.076 2.24 3.99 3.895.914 1.661 1.372 3.472 1.372 5.435v1.29zM35.042 263.16c0 .326-.123.615-.372.86-.25.244-.541.367-.874.367h-6.173c-.331 0-.622-.123-.873-.366a1.18 1.18 0 0 1-.374-.86v-18.783H8.668v18.782c0 .326-.125.615-.374.86-.251.244-.54.367-.875.367H1.246c-.33 0-.621-.123-.872-.366a1.173 1.173 0 0 1-.374-.86V219.95c0-.325.125-.602.374-.83.25-.221.541-.336.872-.336H7.42c.335 0 .624.115.875.336.249.228.374.505.374.83v16.941h17.708V219.95c0-.325.127-.602.374-.83.251-.221.542-.336.873-.336h6.173c.333 0 .623.115.874.336.25.228.372.505.372.83v43.21z" fill="#77BCFA"/><path d="M26.99 104.544c-2.343 0-4.253-1.886-4.253-4.191V66.84c0-2.309 1.91-4.189 4.252-4.189h34.053c2.342 0 4.252 1.88 4.252 4.189l.003 33.512c0 2.305-1.913 4.191-4.258 4.191H26.99zm127.685 0c-2.342 0-4.255-1.886-4.255-4.191V66.84c0-2.309 1.913-4.189 4.255-4.189h34.048c2.345 0 4.255 1.88 4.255 4.189v33.512c0 2.305-1.91 4.191-4.255 4.191h-34.048zm-63.843 0c-2.345 0-4.252-1.886-4.252-4.191V66.84c0-2.309 1.907-4.189 4.252-4.189h34.053c2.34 0 4.247 1.88 4.247 4.189v33.512c.005 2.305-1.907 4.191-4.247 4.191H90.832z" fill="#D0E9FF"/><path d="M154.675 41.889c-2.342 0-4.255-1.88-4.255-4.188V4.185c0-2.305 1.913-4.185 4.255-4.185h34.048c2.345 0 4.255 1.88 4.255 4.185v33.516c0 2.308-1.91 4.188-4.255 4.188h-34.048zm-127.686 0c-2.342 0-4.252-1.88-4.252-4.188V4.185C22.737 1.88 24.647 0 26.989 0h34.053c2.342 0 4.252 1.88 4.252 4.185l.003 33.516c0 2.308-1.913 4.188-4.258 4.188H26.99zm0 125.675c-2.342 0-4.252-1.88-4.252-4.191v-33.51c0-2.311 1.91-4.188 4.252-4.188h34.053c2.342 0 4.252 1.877 4.252 4.188l.003 33.51c0 2.31-1.913 4.19-4.258 4.19H26.99zm161.734 0h-34.048c-2.342 0-4.255-1.88-4.255-4.191v-33.51c0-2.311 1.913-4.188 4.255-4.188h34.048c2.345 0 4.255 1.877 4.255 4.188v33.51c0 2.31-1.91 4.19-4.255 4.19z" fill="#77BCFA"/></g></svg>