<svg width="199" height="33" xmlns="http://www.w3.org/2000/svg"><g fill="none" fill-rule="evenodd"><path d="M160.257 10.42c0-1.75-.523-2.99-1.571-3.724-1.045-.736-2.615-1.105-4.707-1.105-.223 0-.508.008-.858.021-.349.013-.705.028-1.067.04l-1.026.044a8.67 8.67 0 0 0-.775.06v9.91c.166 0 .426.006.775.019l1.088.042c.376.013.739.028 1.086.041.35.013.61.02.777.02 2.26 0 3.87-.416 4.833-1.247.964-.832 1.445-2.082 1.445-3.747v-.375zm5.777.374c0 1.831-.328 3.372-.984 4.62-.656 1.25-1.535 2.255-2.638 3.018-1.102.764-2.378 1.305-3.83 1.623a21.424 21.424 0 0 1-4.603.479c-.559 0-1.2-.021-1.925-.063l-1.8-.103v10.864a.824.824 0 0 1-.232.583.738.738 0 0 1-.565.249h-4.184a.818.818 0 0 1-.588-.249.803.803 0 0 1-.25-.583V2.595c0-.418.119-.715.356-.895.239-.181.564-.298.984-.353 1.089-.167 2.342-.3 3.768-.397 1.422-.096 2.9-.145 4.436-.145 1.619 0 3.151.151 4.603.457 1.452.306 2.728.833 3.83 1.581 1.103.75 1.982 1.742 2.638 2.977.656 1.237.984 2.768.984 4.6v.374zm32.7 20.646c0 .22-.07.383-.209.48a.878.878 0 0 1-.504.144h-4.226a.582.582 0 0 1-.482-.249.937.937 0 0 1-.188-.583V11.877c0-.279-.041-.418-.127-.418-.027 0-.097.083-.208.25l-4.018 7.95a1.459 1.459 0 0 1-.564.522 1.656 1.656 0 0 1-.775.187h-4.229c-.28 0-.537-.063-.774-.187a1.465 1.465 0 0 1-.565-.522l-4.06-7.95c-.112-.167-.18-.25-.21-.25-.082 0-.125.14-.125.418v19.355a.951.951 0 0 1-.187.583.581.581 0 0 1-.483.249h-4.227a.872.872 0 0 1-.503-.145c-.137-.096-.207-.258-.207-.48V2.804c0-.472.16-.868.48-1.187.322-.32.718-.48 1.194-.48h3.432c.334 0 .64.091.92.273.28.18.49.42.628.727l6.32 12.735.251.44c.056.096.127.145.21.145.083 0 .153-.05.208-.144.056-.098.139-.246.252-.44l6.318-12.736c.141-.306.351-.547.631-.727.279-.182.585-.272.92-.272h3.433c.472 0 .872.16 1.192.48.32.318.481.714.481 1.186V31.44zm-65.817-8.658c0-.583-.085-1.137-.252-1.665a3.38 3.38 0 0 0-.86-1.395c-.403-.4-.934-.729-1.59-.978-.655-.25-1.472-.374-2.45-.374h-5.313v9.158c.503 0 1.087.013 1.758.04.67.029 1.227.041 1.672.041 1.341 0 2.457-.08 3.35-.248.893-.168 1.612-.43 2.153-.79.547-.363.937-.813 1.175-1.354.238-.542.357-1.172.357-1.895v-.54zm-.169-13.195c0-1.442-.537-2.47-1.613-3.08-1.074-.611-2.95-.916-5.628-.916-.501 0-1.026.008-1.57.021-.544.013-1.04.035-1.485.062v8.45h5.314c.977 0 1.788-.104 2.428-.311.642-.21 1.15-.494 1.528-.854a2.97 2.97 0 0 0 .795-1.27c.154-.485.231-.993.231-1.52v-.582zm5.86 13.82c0 1.664-.3 3.066-.9 4.202a7.294 7.294 0 0 1-2.553 2.77c-1.102.707-2.436 1.22-3.998 1.54-1.563.319-3.319.477-5.275.477-1.7 0-3.173-.04-4.414-.124-1.242-.084-2.185-.194-2.826-.333-.698-.14-1.205-.354-1.526-.646-.322-.29-.482-.826-.482-1.602V3.468c0-.747.146-1.284.437-1.601.296-.32.776-.536 1.446-.645.558-.085 1.451-.175 2.679-.272a55.903 55.903 0 0 1 4.31-.145c1.899 0 3.636.145 5.212.438 1.578.29 2.936.768 4.081 1.434 1.144.666 2.03 1.534 2.658 2.602.627 1.069.942 2.393.942 3.975v.832c0 1.388-.321 2.643-.963 3.766-.642 1.125-1.604 1.965-2.888 2.52 1.284.553 2.28 1.352 2.992 2.394.711 1.039 1.067 2.351 1.067 3.933v.708zm-35.573 0c0 1.553-.273 2.893-.817 4.017A7.83 7.83 0 0 1 100 30.211c-.936.736-2.044 1.284-3.33 1.645-1.283.36-2.663.54-4.142.54-1.562 0-2.993-.098-4.292-.29a38.241 38.241 0 0 1-3.745-.75 1.46 1.46 0 0 1-.566-.27.642.642 0 0 1-.228-.521v-2.58c0-.222.07-.403.209-.542a.737.737 0 0 1 .544-.208h.084c1.673.168 3.173.306 4.499.416 1.326.112 2.491.167 3.495.167 1.7 0 2.909-.365 3.62-1.102.712-.736 1.066-1.84 1.066-3.309v-.874a8.38 8.38 0 0 0-.144-1.582c-.099-.5-.294-.945-.587-1.334-.292-.386-.69-.7-1.194-.936-.502-.235-1.144-.353-1.924-.353h-7.407c-.533 0-.798-.264-.798-.79v-2.624c0-.527.265-.79.798-.79h7.407c.78 0 1.422-.11 1.924-.334.503-.221.902-.52 1.194-.893.293-.375.488-.807.587-1.292a8.045 8.045 0 0 0 .144-1.56V9.38a6.09 6.09 0 0 0-.187-1.52 2.802 2.802 0 0 0-.712-1.268c-.348-.363-.83-.655-1.443-.875-.614-.223-1.396-.335-2.344-.335-.753 0-1.417.015-1.988.043-.573.026-1.152.062-1.738.103-.585.042-1.214.105-1.882.19-.67.081-1.466.164-2.386.249h-.084a.735.735 0 0 1-.544-.21.723.723 0 0 1-.21-.54v-2.58a.64.64 0 0 1 .229-.522c.155-.123.344-.213.566-.27a38.24 38.24 0 0 1 3.745-.75c1.299-.192 2.73-.29 4.292-.29 1.507 0 2.902.151 4.186.457 1.283.306 2.393.799 3.326 1.476a7.067 7.067 0 0 1 2.199 2.644c.53 1.083.795 2.414.795 3.998v.666c0 1.47-.314 2.712-.942 3.725-.627 1.012-1.514 1.824-2.657 2.434 1.17.638 2.064 1.52 2.677 2.642a7.574 7.574 0 0 1 .922 3.686v.874zm-25.167 7.825a.799.799 0 0 1-.25.583.812.812 0 0 1-.587.249h-4.144a.811.811 0 0 1-.585-.249.804.804 0 0 1-.251-.583V18.494H60.163v12.738a.8.8 0 0 1-.25.583.81.81 0 0 1-.587.249h-4.144a.811.811 0 0 1-.586-.249.8.8 0 0 1-.25-.583V1.927c0-.22.083-.408.25-.563a.856.856 0 0 1 .586-.227h4.144c.224 0 .418.077.586.227a.738.738 0 0 1 .251.563v11.49h11.888V1.927c0-.22.084-.408.25-.563a.856.856 0 0 1 .586-.227h4.144c.223 0 .418.077.587.227.167.155.25.343.25.563v29.305z" fill="#2970FF"/><path d="M1.197 20.322a.818.818 0 0 1-.818-.815v-6.514c0-.449.367-.814.818-.814h6.551c.451 0 .819.365.819.814v6.514a.819.819 0 0 1-.82.815h-6.55zm24.566 0a.819.819 0 0 1-.818-.815v-6.514c0-.449.368-.814.818-.814h6.551c.451 0 .819.365.819.814v6.514a.818.818 0 0 1-.819.815h-6.55zm-12.283 0a.818.818 0 0 1-.818-.815v-6.514c0-.449.367-.814.818-.814h6.552c.45 0 .817.365.817.814v6.514a.817.817 0 0 1-.817.815H13.48z" fill="#7AAFFF"/><path d="M25.763 8.143a.818.818 0 0 1-.818-.815V.814c0-.449.368-.814.818-.814h6.551c.451 0 .819.365.819.814v6.514a.818.818 0 0 1-.819.815h-6.55zm-24.566 0a.818.818 0 0 1-.818-.815V.814C.379.365.746 0 1.197 0h6.551c.451 0 .819.365.819.814v6.514a.818.818 0 0 1-.82.815h-6.55zm0 24.429a.818.818 0 0 1-.818-.815v-6.513c0-.45.367-.815.818-.815h6.551c.451 0 .819.365.819.815v6.513c0 .45-.368.815-.82.815h-6.55zm31.117 0h-6.55a.818.818 0 0 1-.82-.815v-6.513c0-.45.369-.815.82-.815h6.55c.451 0 .819.365.819.815v6.513c0 .45-.368.815-.819.815z" fill="#2970FF"/></g></svg>
