<svg class="icon" viewBox="0 0 1024 1024" xmlns="http://www.w3.org/2000/svg" width="128" height="128"><defs><style/></defs><path d="M423.332 562.689h-240c-17.673 0-32 14.327-32 32v240c0 17.673 14.327 32 32 32h240c17.673 0 32-14.327 32-32v-240c0-17.672-14.327-32-32-32zm-32 240h-176v-176h176v176zm32-627.378h-240c-17.673 0-32 14.327-32 32v240c0 17.673 14.327 32 32 32h240c17.673 0 32-14.327 32-32v-240c0-17.674-14.327-32-32-32zm-32 240h-176v-176h176v176zm429.337 147.378h-240c-17.673 0-32 14.327-32 32v240c0 17.673 14.327 32 32 32h240c17.673 0 32-14.327 32-32v-240c0-17.672-14.327-32-32-32zm-32 240h-176v-176h176v176zm74.628-496.006l-140-140c-12.498-12.497-32.758-12.497-45.256 0l-140 140c-12.496 12.497-12.496 32.758 0 45.255l140 140c6.249 6.249 14.438 9.373 22.628 9.373s16.379-3.124 22.628-9.373l140-140c12.496-12.497 12.496-32.758 0-45.255zM700.669 424.056l-94.745-94.745 94.745-94.745 94.745 94.745-94.745 94.745z"/></svg>
